<svg width="92" height="18" viewBox="0 0 92 18" fill="none" xmlns="http://www.w3.org/2000/svg">
<path d="M5 10H11V16H14V7L8 2.5L2 7V16H5V10ZM0 18V6L8 0L16 6V18H0Z" fill="#2D97F4"/>
<path d="M22.696 14V5.54H24.508V8.912C24.716 8.608 24.984 8.38 25.312 8.228C25.64 8.068 26.004 7.988 26.404 7.988C27.788 7.988 28.48 8.812 28.48 10.46V14H26.668V10.544C26.668 10.136 26.592 9.844 26.44 9.668C26.288 9.484 26.064 9.392 25.768 9.392C25.384 9.392 25.076 9.512 24.844 9.752C24.62 9.992 24.508 10.312 24.508 10.712V14H22.696ZM32.6647 14.132C32.0327 14.132 31.4807 14.008 31.0087 13.76C30.5447 13.504 30.1847 13.148 29.9287 12.692C29.6727 12.228 29.5447 11.68 29.5447 11.048C29.5447 10.424 29.6727 9.884 29.9287 9.428C30.1847 8.964 30.5447 8.608 31.0087 8.36C31.4807 8.112 32.0327 7.988 32.6647 7.988C33.2967 7.988 33.8447 8.112 34.3087 8.36C34.7807 8.608 35.1447 8.964 35.4007 9.428C35.6647 9.884 35.7967 10.424 35.7967 11.048C35.7967 11.68 35.6647 12.228 35.4007 12.692C35.1447 13.148 34.7807 13.504 34.3087 13.76C33.8447 14.008 33.2967 14.132 32.6647 14.132ZM32.6647 12.776C33.0487 12.776 33.3607 12.636 33.6007 12.356C33.8487 12.076 33.9727 11.64 33.9727 11.048C33.9727 10.464 33.8487 10.036 33.6007 9.764C33.3607 9.484 33.0487 9.344 32.6647 9.344C32.2807 9.344 31.9687 9.484 31.7287 9.764C31.4887 10.036 31.3687 10.464 31.3687 11.048C31.3687 11.64 31.4887 12.076 31.7287 12.356C31.9687 12.636 32.2807 12.776 32.6647 12.776ZM39.7325 14.132C38.0765 14.132 37.2485 13.328 37.2485 11.72V9.464H36.1325V8.108H37.2485V6.38H39.0605V8.108H40.8005V9.464H39.0605V11.648C39.0605 11.984 39.1365 12.236 39.2885 12.404C39.4485 12.572 39.7005 12.656 40.0445 12.656C40.1485 12.656 40.2565 12.644 40.3685 12.62C40.4885 12.596 40.6165 12.564 40.7525 12.524L41.0165 13.844C40.8485 13.932 40.6485 14 40.4165 14.048C40.1845 14.104 39.9565 14.132 39.7325 14.132ZM44.6935 14.132C43.9975 14.132 43.3975 14.008 42.8935 13.76C42.3975 13.504 42.0135 13.148 41.7415 12.692C41.4775 12.228 41.3455 11.684 41.3455 11.06C41.3455 10.452 41.4735 9.92 41.7295 9.464C41.9935 9 42.3495 8.64 42.7975 8.384C43.2535 8.12 43.7775 7.988 44.3695 7.988C45.2255 7.988 45.9055 8.26 46.4095 8.804C46.9135 9.34 47.1655 10.068 47.1655 10.988V11.444H43.0735C43.1375 11.908 43.3055 12.248 43.5775 12.464C43.8575 12.672 44.2415 12.776 44.7295 12.776C45.0495 12.776 45.3735 12.728 45.7015 12.632C46.0295 12.536 46.3255 12.388 46.5895 12.188L47.0695 13.4C46.7735 13.624 46.4095 13.804 45.9775 13.94C45.5535 14.068 45.1255 14.132 44.6935 14.132ZM44.4415 9.188C44.0575 9.188 43.7455 9.304 43.5055 9.536C43.2735 9.768 43.1295 10.092 43.0735 10.508H45.6655C45.6175 9.628 45.2095 9.188 44.4415 9.188ZM50.4154 14.132C49.6554 14.132 49.0994 13.936 48.7474 13.544C48.3954 13.144 48.2194 12.552 48.2194 11.768V5.54H50.0314V11.696C50.0314 12.336 50.3154 12.656 50.8834 12.656C50.9714 12.656 51.0554 12.652 51.1354 12.644C51.2234 12.636 51.3074 12.62 51.3874 12.596L51.3634 14C51.0594 14.088 50.7434 14.132 50.4154 14.132ZM59.9834 6.968V5.276H61.9274V6.968H59.9834ZM56.0114 14V9.464H54.8954V8.108H56.0114C56.0274 7.276 56.2674 6.652 56.7314 6.236C57.2034 5.812 57.9194 5.572 58.8794 5.516L59.4554 5.48L59.5274 6.8L59.0834 6.824C58.6194 6.848 58.2914 6.948 58.0994 7.124C57.9154 7.292 57.8234 7.552 57.8234 7.904V8.108H61.8554V14H60.0434V9.464H57.8234V14H56.0114ZM63.2546 14V8.108H65.0306V8.972C65.2306 8.652 65.4986 8.408 65.8346 8.24C66.1706 8.072 66.5466 7.988 66.9626 7.988C67.6586 7.988 68.1786 8.192 68.5226 8.6C68.8666 9 69.0386 9.62 69.0386 10.46V14H67.2266V10.544C67.2266 10.136 67.1506 9.844 66.9986 9.668C66.8466 9.484 66.6226 9.392 66.3266 9.392C65.9426 9.392 65.6346 9.512 65.4026 9.752C65.1786 9.992 65.0666 10.312 65.0666 10.712V14H63.2546ZM72.6833 14.132C72.1713 14.132 71.7193 14.008 71.3273 13.76C70.9433 13.504 70.6433 13.148 70.4273 12.692C70.2113 12.228 70.1033 11.68 70.1033 11.048C70.1033 10.416 70.2113 9.872 70.4273 9.416C70.6433 8.96 70.9433 8.608 71.3273 8.36C71.7193 8.112 72.1713 7.988 72.6833 7.988C73.0753 7.988 73.4353 8.072 73.7633 8.24C74.0913 8.408 74.3393 8.632 74.5073 8.912V5.54H76.3193V14H74.5433V13.112C74.3833 13.424 74.1353 13.672 73.7993 13.856C73.4713 14.04 73.0993 14.132 72.6833 14.132ZM73.2233 12.776C73.6073 12.776 73.9193 12.636 74.1593 12.356C74.4073 12.076 74.5313 11.64 74.5313 11.048C74.5313 10.464 74.4073 10.036 74.1593 9.764C73.9193 9.484 73.6073 9.344 73.2233 9.344C72.8393 9.344 72.5273 9.484 72.2873 9.764C72.0473 10.036 71.9273 10.464 71.9273 11.048C71.9273 11.64 72.0473 12.076 72.2873 12.356C72.5273 12.636 72.8393 12.776 73.2233 12.776ZM80.7755 14.132C80.0795 14.132 79.4795 14.008 78.9755 13.76C78.4795 13.504 78.0955 13.148 77.8235 12.692C77.5595 12.228 77.4275 11.684 77.4275 11.06C77.4275 10.452 77.5555 9.92 77.8115 9.464C78.0755 9 78.4315 8.64 78.8795 8.384C79.3355 8.12 79.8595 7.988 80.4515 7.988C81.3075 7.988 81.9875 8.26 82.4915 8.804C82.9955 9.34 83.2475 10.068 83.2475 10.988V11.444H79.1555C79.2195 11.908 79.3875 12.248 79.6595 12.464C79.9395 12.672 80.3235 12.776 80.8115 12.776C81.1315 12.776 81.4555 12.728 81.7835 12.632C82.1115 12.536 82.4075 12.388 82.6715 12.188L83.1515 13.4C82.8555 13.624 82.4915 13.804 82.0595 13.94C81.6355 14.068 81.2075 14.132 80.7755 14.132ZM80.5235 9.188C80.1395 9.188 79.8275 9.304 79.5875 9.536C79.3555 9.768 79.2115 10.092 79.1555 10.508H81.7475C81.6995 9.628 81.2915 9.188 80.5235 9.188ZM84.3015 14V8.108H86.0775V9.128C86.3575 8.44 86.9575 8.06 87.8775 7.988L88.4055 7.952L88.5135 9.476L87.4935 9.584C86.5975 9.672 86.1495 10.128 86.1495 10.952V14H84.3015ZM88.8458 14V12.08H90.7898V14H88.8458Z" fill="black"/>
</svg>
